<svg xmlns="http://www.w3.org/2000/svg" width="108.07" height="382.32" viewBox="0 0 108.07 382.32">
  <title>6hp-background</title>
  <g id="Layer_3" data-name="Layer 3">
    <rect x="0.5" y="0.5" width="90" height="380" style="fill: #f1f2f2;stroke: #33c6f4;stroke-miterlimit: 10"/>
  </g>
  <g id="Layer_2" data-name="Layer 2">
    <g>
      <g id="layer1">
        <path id="path7705" d="M64.84,205A19.84,19.84,0,1,1,45,185.16,19.84,19.84,0,0,1,64.84,205" transform="translate(0.5 0.5)" style="fill: #010101"/>
        <path id="path7707" d="M56.2,205A11.2,11.2,0,1,1,45,193.8,11.2,11.2,0,0,1,56.2,205" transform="translate(0.5 0.5)" style="fill: #4977bb"/>
        <path id="path7709" d="M60.7,205A15.7,15.7,0,1,1,45,189.3,15.7,15.7,0,0,1,60.7,205Z" transform="translate(0.5 0.5)" style="fill: none;stroke: #646464;stroke-miterlimit: 10;stroke-width: 0.30000001192092896px"/>
        <path id="path7711" d="M46.81,185.25c-.6-.06-1.2-.09-1.81-.09s-1.47.05-2.19.12v9h4Z" transform="translate(0.5 0.5)" style="fill: #4977bb"/>
      </g>
      <g id="layer1-2" data-name="layer1">
        <path id="path9179" d="M60.86,306a1.47,1.47,0,0,1-1.18-.7l-7.15-12.64a1.53,1.53,0,0,1,0-1.38l7.15-12.65a1.49,1.49,0,0,1,1.18-.69H75.14a1.49,1.49,0,0,1,1.18.69l7.15,12.65a1.53,1.53,0,0,1,0,1.38l-7.15,12.64a1.47,1.47,0,0,1-1.18.7Z" transform="translate(0.5 0.5)" style="fill: #e6e6e5;stroke: #646764;stroke-width: 0.25px"/>
        <path id="path9183" d="M57,292a11,11,0,1,1,11,11,11,11,0,0,1-11-11" transform="translate(0.5 0.5)" style="fill: #555554"/>
        <path id="path9185" d="M62.33,292A5.67,5.67,0,1,1,68,297.67,5.67,5.67,0,0,1,62.33,292" transform="translate(0.5 0.5)" style="fill: #010101"/>
        <path id="path18865" d="M59.59,292A8.41,8.41,0,1,1,68,300.42,8.41,8.41,0,0,1,59.59,292" transform="translate(0.5 0.5)" style="fill: none;stroke: #282827;stroke-width: 0.25px"/>
      </g>
      <g id="layer1-3" data-name="layer1">
        <path id="path9179-2" data-name="path9179" d="M16.86,306a1.47,1.47,0,0,1-1.18-.7L8.53,292.69a1.53,1.53,0,0,1,0-1.38l7.15-12.65a1.49,1.49,0,0,1,1.18-.69H31.14a1.49,1.49,0,0,1,1.18.69l7.15,12.65a1.53,1.53,0,0,1,0,1.38l-7.15,12.64a1.47,1.47,0,0,1-1.18.7Z" transform="translate(0.5 0.5)" style="fill: #e6e6e5;stroke: #646764;stroke-width: 0.25px"/>
        <path id="path9183-2" data-name="path9183" d="M13,292a11,11,0,1,1,11,11,11,11,0,0,1-11-11" transform="translate(0.5 0.5)" style="fill: #555554"/>
        <path id="path9185-2" data-name="path9185" d="M18.33,292A5.67,5.67,0,1,1,24,297.67,5.67,5.67,0,0,1,18.33,292" transform="translate(0.5 0.5)" style="fill: #010101"/>
        <path id="path18865-2" data-name="path18865" d="M15.59,292A8.41,8.41,0,1,1,24,300.42,8.41,8.41,0,0,1,15.59,292" transform="translate(0.5 0.5)" style="fill: none;stroke: #282827;stroke-width: 0.25px"/>
      </g>
      <g id="layer1-4" data-name="layer1">
        <path id="path7705-2" data-name="path7705" d="M64.84,112A19.84,19.84,0,1,1,45,92.16,19.84,19.84,0,0,1,64.84,112" transform="translate(0.5 0.5)" style="fill: #010101"/>
        <path id="path7707-2" data-name="path7707" d="M56.2,112A11.2,11.2,0,1,1,45,100.8,11.2,11.2,0,0,1,56.2,112" transform="translate(0.5 0.5)" style="fill: #4977bb"/>
        <path id="path7709-2" data-name="path7709" d="M60.7,112A15.7,15.7,0,1,1,45,96.3,15.7,15.7,0,0,1,60.7,112Z" transform="translate(0.5 0.5)" style="fill: none;stroke: #646464;stroke-miterlimit: 10;stroke-width: 0.30000001192092896px"/>
        <path id="path7711-2" data-name="path7711" d="M46.81,92.25c-.6-.06-1.2-.09-1.81-.09s-1.47,0-2.19.12v9h4Z" transform="translate(0.5 0.5)" style="fill: #4977bb"/>
      </g>
      <g>
        <path d="M20.29,314.46v8.08H19.24v-8.08Z" transform="translate(0.5 0.5)" style="fill: #231f20"/>
        <path d="M22.2,318.31c0-.6,0-1.09-.05-1.57h.93l.06,1h0a2.11,2.11,0,0,1,1.92-1.09c.8,0,2.05.47,2.05,2.47v3.46H26.08V319.2c0-.94-.35-1.72-1.34-1.72a1.5,1.5,0,0,0-1.42,1.08,1.45,1.45,0,0,0-.07.49v3.49H22.2Z" transform="translate(0.5 0.5)" style="fill: #231f20"/>
      </g>
      <g>
        <path d="M63.9,318.42c0,2.78-1.69,4.25-3.76,4.25s-3.63-1.65-3.63-4.1,1.6-4.24,3.75-4.24S63.9,316,63.9,318.42Zm-6.27.13c0,1.73.93,3.27,2.57,3.27s2.59-1.52,2.59-3.36c0-1.6-.83-3.28-2.57-3.28S57.63,316.77,57.63,318.55Z" transform="translate(0.5 0.5)" style="fill: #231f20"/>
        <path d="M70.12,321c0,.6,0,1.13,0,1.58h-.93l-.06-1h0a2.16,2.16,0,0,1-1.92,1.08c-.91,0-2-.5-2-2.54v-3.39h1.06V320c0,1.1.33,1.85,1.29,1.85a1.52,1.52,0,0,0,1.39-1,1.57,1.57,0,0,0,.1-.54v-3.56h1.06Z" transform="translate(0.5 0.5)" style="fill: #231f20"/>
        <path d="M73.14,315.07v1.67h1.51v.8H73.14v3.13c0,.72.2,1.13.79,1.13a2.6,2.6,0,0,0,.61-.07l0,.79a2.67,2.67,0,0,1-.93.14,1.45,1.45,0,0,1-1.14-.44,2.15,2.15,0,0,1-.41-1.51v-3.17h-.9v-.8h.9v-1.39Z" transform="translate(0.5 0.5)" style="fill: #231f20"/>
      </g>
      <g>
        <path d="M44.37,237.71c-.06-1.13-.13-2.48-.12-3.49h0c-.27.95-.61,2-1,3.07l-1.42,3.92H41l-1.3-3.85c-.39-1.14-.71-2.18-.94-3.14h0c0,1-.09,2.36-.16,3.58l-.22,3.46h-1l.56-8.08h1.33l1.38,3.91c.34,1,.62,1.88.82,2.72h0c.2-.81.49-1.7.85-2.72l1.44-3.91h1.33l.5,8.08h-1Z" transform="translate(0.5 0.5)" style="fill: #231f20"/>
        <path d="M48.49,233.83a.63.63,0,0,1-.68.64.62.62,0,0,1-.63-.64.64.64,0,0,1,.66-.66A.63.63,0,0,1,48.49,233.83Zm-1.18,7.43v-5.8h1.06v5.8Z" transform="translate(0.5 0.5)" style="fill: #231f20"/>
        <path d="M50.61,235.46l.83,1.24c.22.33.39.63.59,1h0c.19-.35.39-.65.58-1l.81-1.23h1.14l-2,2.8,2,3h-1.2L52.6,240c-.23-.33-.42-.66-.62-1h0c-.2.34-.4.66-.62,1l-.84,1.31H49.34l2.06-3-2-2.84Z" transform="translate(0.5 0.5)" style="fill: #231f20"/>
      </g>
      <g>
        <path d="M30.21,142.29a14.44,14.44,0,0,1,2.22-.17,4.6,4.6,0,0,1,3.27,1,3.71,3.71,0,0,1,1.14,2.9,4.24,4.24,0,0,1-1.16,3.14,5,5,0,0,1-3.57,1.16,17,17,0,0,1-1.9-.09Zm1,7.14a6.45,6.45,0,0,0,1.06.06,3.1,3.1,0,0,0,3.44-3.43c0-1.9-1.07-3.11-3.27-3.11a6.14,6.14,0,0,0-1.23.1Z" transform="translate(0.5 0.5)" style="fill: #231f20"/>
        <path d="M38.8,147.55a1.87,1.87,0,0,0,2,2,4,4,0,0,0,1.61-.3l.18.75a4.67,4.67,0,0,1-1.93.36,2.69,2.69,0,0,1-2.86-2.92c0-1.76,1-3.13,2.73-3.13a2.46,2.46,0,0,1,2.4,2.73,4.15,4.15,0,0,1,0,.49Zm3.1-.75a1.51,1.51,0,0,0-1.47-1.72,1.76,1.76,0,0,0-1.62,1.72Z" transform="translate(0.5 0.5)" style="fill: #231f20"/>
        <path d="M44.23,146.35c0-.74,0-1.34,0-1.89h1l0,1h0a2.28,2.28,0,0,1,2.06-1.12c1.4,0,2.46,1.18,2.46,2.95,0,2.08-1.27,3.11-2.64,3.11a2,2,0,0,1-1.79-.91h0v3.16h-1Zm1,1.55a2,2,0,0,0,0,.43,1.63,1.63,0,0,0,1.58,1.24c1.12,0,1.76-.92,1.76-2.25,0-1.16-.61-2.16-1.72-2.16a1.69,1.69,0,0,0-1.6,1.31,2,2,0,0,0-.07.43Z" transform="translate(0.5 0.5)" style="fill: #231f20"/>
        <path d="M52.33,142.79v1.67h1.51v.8H52.33v3.13c0,.72.2,1.13.79,1.13a2.68,2.68,0,0,0,.61-.07l.05.79a2.73,2.73,0,0,1-.94.14,1.45,1.45,0,0,1-1.14-.44,2.15,2.15,0,0,1-.41-1.51v-3.17h-.9v-.8h.9v-1.39Z" transform="translate(0.5 0.5)" style="fill: #231f20"/>
        <path d="M55,141.75h1v3.62h0a1.93,1.93,0,0,1,.75-.75,2.26,2.26,0,0,1,1.08-.29c.78,0,2,.47,2,2.48v3.45H58.91v-3.33c0-.94-.35-1.73-1.34-1.73a1.51,1.51,0,0,0-1.42,1.06,1.26,1.26,0,0,0-.07.5v3.5H55Z" transform="translate(0.5 0.5)" style="fill: #231f20"/>
      </g>
      <g>
        <path d="M22.31,32.62a5.09,5.09,0,0,1-2.14.39,3.77,3.77,0,0,1-4-4.09,4,4,0,0,1,4.22-4.25,4.4,4.4,0,0,1,1.92.36l-.26.85a3.78,3.78,0,0,0-1.63-.33,3,3,0,0,0-3.15,3.33,2.94,2.94,0,0,0,3.11,3.25,4.25,4.25,0,0,0,1.7-.33Z" transform="translate(0.5 0.5)" style="fill: #231f20"/>
        <path d="M26.71,32.89l-.08-.73h0a2.17,2.17,0,0,1-1.77.86A1.66,1.66,0,0,1,23,31.35c0-1.4,1.25-2.17,3.49-2.16v-.11a1.2,1.2,0,0,0-1.32-1.35,2.93,2.93,0,0,0-1.51.43l-.24-.69A3.64,3.64,0,0,1,25.37,27c1.77,0,2.2,1.21,2.2,2.38V31.5a8.4,8.4,0,0,0,.1,1.39Zm-.16-3c-1.15,0-2.45.18-2.45,1.3a.93.93,0,0,0,1,1,1.43,1.43,0,0,0,1.4-1,1,1,0,0,0,.06-.34Z" transform="translate(0.5 0.5)" style="fill: #231f20"/>
        <path d="M29.28,29c0-.74,0-1.34-.05-1.9h.95l.05,1h0A2.28,2.28,0,0,1,32.31,27c1.41,0,2.46,1.19,2.46,2.95C34.77,32,33.5,33,32.13,33a2,2,0,0,1-1.78-.91h0v3.15h-1Zm1,1.55a2.82,2.82,0,0,0,.05.43A1.63,1.63,0,0,0,32,32.19c1.12,0,1.77-.91,1.77-2.24,0-1.16-.61-2.16-1.73-2.16A1.68,1.68,0,0,0,30.4,29.1a1.56,1.56,0,0,0-.08.43Z" transform="translate(0.5 0.5)" style="fill: #231f20"/>
        <path d="M37.38,25.42v1.66h1.51v.81H37.38V31c0,.72.2,1.13.79,1.13a2.08,2.08,0,0,0,.61-.08l0,.79a2.44,2.44,0,0,1-.94.15,1.44,1.44,0,0,1-1.13-.45,2.13,2.13,0,0,1-.41-1.51V27.89h-.9v-.81h.9V25.69Z" transform="translate(0.5 0.5)" style="fill: #231f20"/>
        <path d="M48.31,32.62a5.05,5.05,0,0,1-2.14.39,3.77,3.77,0,0,1-4-4.09,4,4,0,0,1,4.22-4.25,4.4,4.4,0,0,1,1.92.36l-.25.85a3.85,3.85,0,0,0-1.63-.33,3,3,0,0,0-3.16,3.33,2.94,2.94,0,0,0,3.11,3.25,4.22,4.22,0,0,0,1.7-.33Z" transform="translate(0.5 0.5)" style="fill: #231f20"/>
        <path d="M49.55,28.89c0-.68,0-1.27,0-1.81h.92l0,1.14h0A1.74,1.74,0,0,1,52.11,27a.91.91,0,0,1,.3,0v1a1.79,1.79,0,0,0-.36,0,1.47,1.47,0,0,0-1.41,1.35,3.52,3.52,0,0,0,0,.49v3.1h-1Z" transform="translate(0.5 0.5)" style="fill: #231f20"/>
        <path d="M58.33,31.31c0,.6,0,1.12.05,1.58h-.94l-.06-.95h0A2.19,2.19,0,0,1,55.44,33c-.91,0-2-.5-2-2.54v-3.4h1.05V30.3c0,1.1.34,1.85,1.3,1.85a1.54,1.54,0,0,0,1.39-1,1.57,1.57,0,0,0,.09-.54V27.08h1.06Z" transform="translate(0.5 0.5)" style="fill: #231f20"/>
        <path d="M60.08,28.66c0-.6,0-1.1,0-1.58H61L61,28h0A2.14,2.14,0,0,1,63,27c.81,0,2,.48,2,2.47v3.47H64V29.54c0-.93-.35-1.71-1.34-1.71a1.5,1.5,0,0,0-1.42,1.08,1.45,1.45,0,0,0-.07.49v3.49H60.08Z" transform="translate(0.5 0.5)" style="fill: #231f20"/>
        <path d="M70.88,32.67a3.78,3.78,0,0,1-1.67.34,2.76,2.76,0,0,1-2.89-3A3,3,0,0,1,69.44,27a3.61,3.61,0,0,1,1.47.3l-.24.82a2.53,2.53,0,0,0-1.23-.28,2,2,0,0,0-2,2.2,2,2,0,0,0,2,2.17,3,3,0,0,0,1.29-.29Z" transform="translate(0.5 0.5)" style="fill: #231f20"/>
        <path d="M72.12,24.37h1V28h0a2,2,0,0,1,.76-.75A2.15,2.15,0,0,1,75,27c.78,0,2,.48,2,2.48v3.46H76V29.55c0-.93-.35-1.72-1.35-1.72a1.51,1.51,0,0,0-1.41,1.05,1.3,1.3,0,0,0-.08.51v3.5h-1Z" transform="translate(0.5 0.5)" style="fill: #231f20"/>
      </g>
    </g>
    <path d="M57.49,72.42c3.21,0,3.22-5,0-5s-3.23,5,0,5Z" transform="translate(0.5 0.5)" style="fill: #33c6f4"/>
    <path d="M23.62,56.44a6.82,6.82,0,0,0-.18,9c2.94,3.64,8.44,3.65,12.67,3.24,8.22-.8,17-4.76,19-13.47a2.5,2.5,0,0,0-4.82-1.33c-2.95,8.74,4.35,18.28,13.55,17.7l-2.16-3.76a17.35,17.35,0,0,0,2,19.58,2.52,2.52,0,0,0,3.54,0l3.58-4.27L66.55,82q2.25,16.53,3.66,33.16c.47,5.59,1.07,11.12-.41,16.61s-3.62,10.61-5.49,15.84l-5.55,15.54a17.31,17.31,0,0,1-1.31,3.66c-1.21,1.73-2.17,1.65-3.81,1.5-2.2-.19-4.46-1.17-6.7-1.45a39.94,39.94,0,0,0-25.1,5.24l2.52,4.32a8,8,0,0,0,1-12c-4.42-4.7-11.84-2.16-15.46,2.18-4.33,5.19-4.34,12.4-4.18,18.79a232.56,232.56,0,0,1-1,30.32c-.59,5.52-1.44,11-2.47,16.47C1.52,235.7.44,239.48,1.92,243c2.16,5.12,8.09,5.95,13,5.92,18.35-.08,34.78,4.77,48,18.15A2.52,2.52,0,0,0,67.11,266a11.15,11.15,0,0,1,8-8.6l-3.17-2.41c0,5.7-7.13,6.25-11.19,7.48a24.66,24.66,0,0,0-8.07,4,30.85,30.85,0,0,0-9.93,14.47c-5.34,15.31.79,30.66,3.35,45.81.54,3.23.84,6.81-.1,10-1.61,5.5-6.23,5.92-11.25,6.3-4.85.36-10.53,1.56-12.57,6.6-5.08,12.53,18.71,19.8,26.58,22.75a151.62,151.62,0,0,0,56.31,9.41,2.52,2.52,0,0,0,2.15-3.76c-4.08-6.66-5.7-14.78-11.38-20.42-6.22-6.16-15.43-9.62-23-13.65-6.57-3.46-13.9-9.49-20.92-4.08-3.15,2.42-5.34,5.48-9.41,6.48a13.66,13.66,0,0,1-12.26-3c-2.42-2.1-6,1.42-3.53,3.54a18.88,18.88,0,0,0,17.12,4.27,17.91,17.91,0,0,0,6.93-3.54c1.61-1.3,3-3.25,4.77-4.28,3.54-2,6.59.59,9.59,2.18,8,4.2,16.69,7.89,24.09,13,7.64,5.32,9.13,14.44,13.74,22l2.16-3.77a147.48,147.48,0,0,1-47.31-6.6A139.86,139.86,0,0,1,35,360.88c-3.25-1.69-8.1-3.94-8-8.08.08-4.62,5.74-4.61,9.32-4.87,5.25-.37,10.26-1.55,13.08-6.41,2.55-4.38,2.44-9.94,1.72-14.78-2.27-15.26-9.29-30.94-2.9-46.15,3.31-7.91,8.9-12,17-14.16,5.87-1.56,11.68-4.65,11.68-11.49a2.52,2.52,0,0,0-3.16-2.41,16.16,16.16,0,0,0-11.48,12.1l4.17-1.11a66.1,66.1,0,0,0-28-17,65.19,65.19,0,0,0-16.28-2.73c-4.58-.17-15,2.22-16.07-4.46-.45-2.92,1.06-6.81,1.56-9.68.58-3.38,1.08-6.78,1.51-10.18.87-7,1.4-14.06,1.57-21.11.14-6.11-.36-12.23-.12-18.33.12-3.16.55-6.55,2.29-9.27,1.2-1.87,3.73-4.14,6.17-3.94,1.94.15,5.47,3.17,2.71,5.25-2.49,1.89-.35,6,2.52,4.32a35.09,35.09,0,0,1,17.37-4.9,33.46,33.46,0,0,1,8.22.95c2,.5,4.15,1.51,6.27,1.37,3.44-.23,4.9-2.81,6.05-5.7,2.39-6,4.36-12.2,6.53-18.29,2-5.54,4.28-11.06,5.82-16.75,1.44-5.34,1.19-10.59.75-16.06-1-12.16-2.35-24.28-4-36.37-.25-1.82-3.05-2.44-4.18-1.1l-3.58,4.26h3.54A12.1,12.1,0,0,1,66,70.31c.83-1.57-.17-3.89-2.16-3.76a8.67,8.67,0,0,1-8.73-11.37l-4.82-1.33c-1.08,4.66-4.73,7.26-9.08,8.71a25.38,25.38,0,0,1-5.71,1.15,22.46,22.46,0,0,1-3.28.08c-1,0-7.58-.66-5-3.81,2-2.48-1.51-6-3.54-3.54Z" transform="translate(0.5 0.5)" style="fill: #33c6f4"/>
  </g>
</svg>
