<svg xmlns="http://www.w3.org/2000/svg" width="90" height="380" viewBox="0 0 90 380">
  <title>6hp-background-final</title>
  <g id="Layer_3" data-name="Layer 3">
    <rect width="90" height="380" style="fill: #f1f2f2;stroke: #33c6f4;stroke-miterlimit: 10"/>
  </g>
  <g id="Layer_2" data-name="Layer 2">
    <g>
      <g>
        <path d="M20.29,314.46v8.08H19.24v-8.08Z" style="fill: #231f20"/>
        <path d="M22.2,318.31c0-.6,0-1.09-.05-1.57h.93l.06,1h0a2.11,2.11,0,0,1,1.92-1.09c.8,0,2.05.47,2.05,2.47v3.46H26.08V319.2c0-.94-.35-1.72-1.34-1.72a1.5,1.5,0,0,0-1.42,1.08,1.45,1.45,0,0,0-.07.49v3.49H22.2Z" style="fill: #231f20"/>
      </g>
      <g>
        <path d="M63.9,318.42c0,2.78-1.69,4.25-3.76,4.25s-3.63-1.65-3.63-4.1,1.6-4.24,3.75-4.24S63.9,316,63.9,318.42Zm-6.27.13c0,1.73.93,3.27,2.57,3.27s2.59-1.52,2.59-3.36c0-1.6-.83-3.28-2.57-3.28S57.63,316.77,57.63,318.55Z" style="fill: #231f20"/>
        <path d="M70.12,321c0,.6,0,1.13,0,1.58h-.93l-.06-1h0a2.16,2.16,0,0,1-1.92,1.08c-.91,0-2-.5-2-2.54v-3.39h1.06V320c0,1.1.33,1.85,1.29,1.85a1.52,1.52,0,0,0,1.39-1,1.57,1.57,0,0,0,.1-.54v-3.56h1.06Z" style="fill: #231f20"/>
        <path d="M73.14,315.07v1.67h1.51v.8H73.14v3.13c0,.72.2,1.13.79,1.13a2.6,2.6,0,0,0,.61-.07l0,.79a2.67,2.67,0,0,1-.93.14,1.45,1.45,0,0,1-1.14-.44,2.15,2.15,0,0,1-.41-1.51v-3.17h-.9v-.8h.9v-1.39Z" style="fill: #231f20"/>
      </g>
      <g>
        <path d="M44.37,237.71c-.06-1.13-.13-2.48-.12-3.49h0c-.27.95-.61,2-1,3.07l-1.42,3.92H41l-1.3-3.85c-.39-1.14-.71-2.18-.94-3.14h0c0,1-.09,2.36-.16,3.58l-.22,3.46h-1l.56-8.08h1.33l1.38,3.91c.34,1,.62,1.88.82,2.72h0c.2-.81.49-1.7.85-2.72l1.44-3.91h1.33l.5,8.08h-1Z" style="fill: #231f20"/>
        <path d="M48.49,233.83a.63.63,0,0,1-.68.64.62.62,0,0,1-.63-.64.64.64,0,0,1,.66-.66A.63.63,0,0,1,48.49,233.83Zm-1.18,7.43v-5.8h1.06v5.8Z" style="fill: #231f20"/>
        <path d="M50.61,235.46l.83,1.24c.22.33.39.63.59,1h0c.19-.35.39-.65.58-1l.81-1.23h1.14l-2,2.8,2,3h-1.2L52.6,240c-.23-.33-.42-.66-.62-1h0c-.2.34-.4.66-.62,1l-.84,1.31H49.34l2.06-3-2-2.84Z" style="fill: #231f20"/>
      </g>
      <g>
        <path d="M30.21,142.29a14.44,14.44,0,0,1,2.22-.17,4.6,4.6,0,0,1,3.27,1,3.71,3.71,0,0,1,1.14,2.9,4.24,4.24,0,0,1-1.16,3.14,5,5,0,0,1-3.57,1.16,17,17,0,0,1-1.9-.09Zm1,7.14a6.45,6.45,0,0,0,1.06.06,3.1,3.1,0,0,0,3.44-3.43c0-1.9-1.07-3.11-3.27-3.11a6.14,6.14,0,0,0-1.23.1Z" style="fill: #231f20"/>
        <path d="M38.8,147.55a1.87,1.87,0,0,0,2,2,4,4,0,0,0,1.61-.3l.18.75a4.67,4.67,0,0,1-1.93.36,2.69,2.69,0,0,1-2.86-2.92c0-1.76,1-3.13,2.73-3.13a2.46,2.46,0,0,1,2.4,2.73,4.15,4.15,0,0,1,0,.49Zm3.1-.75a1.51,1.51,0,0,0-1.47-1.72,1.76,1.76,0,0,0-1.62,1.72Z" style="fill: #231f20"/>
        <path d="M44.23,146.35c0-.74,0-1.34,0-1.89h1l0,1h0a2.28,2.28,0,0,1,2.06-1.12c1.4,0,2.46,1.18,2.46,2.95,0,2.08-1.27,3.11-2.64,3.11a2,2,0,0,1-1.79-.91h0v3.16h-1Zm1,1.55a2,2,0,0,0,0,.43,1.63,1.63,0,0,0,1.58,1.24c1.12,0,1.76-.92,1.76-2.25,0-1.16-.61-2.16-1.72-2.16a1.69,1.69,0,0,0-1.6,1.31,2,2,0,0,0-.07.43Z" style="fill: #231f20"/>
        <path d="M52.33,142.79v1.67h1.51v.8H52.33v3.13c0,.72.2,1.13.79,1.13a2.68,2.68,0,0,0,.61-.07l.05.79a2.73,2.73,0,0,1-.94.14,1.45,1.45,0,0,1-1.14-.44,2.15,2.15,0,0,1-.41-1.51v-3.17h-.9v-.8h.9v-1.39Z" style="fill: #231f20"/>
        <path d="M55,141.75h1v3.62h0a1.93,1.93,0,0,1,.75-.75,2.26,2.26,0,0,1,1.08-.29c.78,0,2,.47,2,2.48v3.45H58.91v-3.33c0-.94-.35-1.73-1.34-1.73a1.51,1.51,0,0,0-1.42,1.06,1.26,1.26,0,0,0-.07.5v3.5H55Z" style="fill: #231f20"/>
      </g>
      <g>
        <path d="M22.31,32.62a5.09,5.09,0,0,1-2.14.39,3.77,3.77,0,0,1-4-4.09,4,4,0,0,1,4.22-4.25,4.4,4.4,0,0,1,1.92.36l-.26.85a3.78,3.78,0,0,0-1.63-.33,3,3,0,0,0-3.15,3.33,2.94,2.94,0,0,0,3.11,3.25,4.25,4.25,0,0,0,1.7-.33Z" style="fill: #231f20"/>
        <path d="M26.71,32.89l-.08-.73h0a2.17,2.17,0,0,1-1.77.86A1.66,1.66,0,0,1,23,31.35c0-1.4,1.25-2.17,3.49-2.16v-.11a1.2,1.2,0,0,0-1.32-1.35,2.93,2.93,0,0,0-1.51.43l-.24-.69A3.64,3.64,0,0,1,25.37,27c1.77,0,2.2,1.21,2.2,2.38V31.5a8.4,8.4,0,0,0,.1,1.39Zm-.16-3c-1.15,0-2.45.18-2.45,1.3a.93.93,0,0,0,1,1,1.43,1.43,0,0,0,1.4-1,1,1,0,0,0,.06-.34Z" style="fill: #231f20"/>
        <path d="M29.28,29c0-.74,0-1.34-.05-1.9h.95l.05,1h0A2.28,2.28,0,0,1,32.31,27c1.41,0,2.46,1.19,2.46,2.95C34.77,32,33.5,33,32.13,33a2,2,0,0,1-1.78-.91h0v3.15h-1Zm1,1.55a2.82,2.82,0,0,0,.05.43A1.63,1.63,0,0,0,32,32.19c1.12,0,1.77-.91,1.77-2.24,0-1.16-.61-2.16-1.73-2.16A1.68,1.68,0,0,0,30.4,29.1a1.56,1.56,0,0,0-.08.43Z" style="fill: #231f20"/>
        <path d="M37.38,25.42v1.66h1.51v.81H37.38V31c0,.72.2,1.13.79,1.13a2.08,2.08,0,0,0,.61-.08l0,.79a2.44,2.44,0,0,1-.94.15,1.44,1.44,0,0,1-1.13-.45,2.13,2.13,0,0,1-.41-1.51V27.89h-.9v-.81h.9V25.69Z" style="fill: #231f20"/>
        <path d="M48.31,32.62a5.05,5.05,0,0,1-2.14.39,3.77,3.77,0,0,1-4-4.09,4,4,0,0,1,4.22-4.25,4.4,4.4,0,0,1,1.92.36l-.25.85a3.85,3.85,0,0,0-1.63-.33,3,3,0,0,0-3.16,3.33,2.94,2.94,0,0,0,3.11,3.25,4.22,4.22,0,0,0,1.7-.33Z" style="fill: #231f20"/>
        <path d="M49.55,28.89c0-.68,0-1.27,0-1.81h.92l0,1.14h0A1.74,1.74,0,0,1,52.11,27a.91.91,0,0,1,.3,0v1a1.79,1.79,0,0,0-.36,0,1.47,1.47,0,0,0-1.41,1.35,3.52,3.52,0,0,0,0,.49v3.1h-1Z" style="fill: #231f20"/>
        <path d="M58.33,31.31c0,.6,0,1.12.05,1.58h-.94l-.06-.95h0A2.19,2.19,0,0,1,55.44,33c-.91,0-2-.5-2-2.54v-3.4h1.05V30.3c0,1.1.34,1.85,1.3,1.85a1.54,1.54,0,0,0,1.39-1,1.57,1.57,0,0,0,.09-.54V27.08h1.06Z" style="fill: #231f20"/>
        <path d="M60.08,28.66c0-.6,0-1.1,0-1.58H61L61,28h0A2.14,2.14,0,0,1,63,27c.81,0,2,.48,2,2.47v3.47H64V29.54c0-.93-.35-1.71-1.34-1.71a1.5,1.5,0,0,0-1.42,1.08,1.45,1.45,0,0,0-.07.49v3.49H60.08Z" style="fill: #231f20"/>
        <path d="M70.88,32.67a3.78,3.78,0,0,1-1.67.34,2.76,2.76,0,0,1-2.89-3A3,3,0,0,1,69.44,27a3.61,3.61,0,0,1,1.47.3l-.24.82a2.53,2.53,0,0,0-1.23-.28,2,2,0,0,0-2,2.2,2,2,0,0,0,2,2.17,3,3,0,0,0,1.29-.29Z" style="fill: #231f20"/>
        <path d="M72.12,24.37h1V28h0a2,2,0,0,1,.76-.75A2.15,2.15,0,0,1,75,27c.78,0,2,.48,2,2.48v3.46H76V29.55c0-.93-.35-1.72-1.35-1.72a1.51,1.51,0,0,0-1.41,1.05,1.3,1.3,0,0,0-.08.51v3.5h-1Z" style="fill: #231f20"/>
      </g>
    </g>
  </g>
</svg>
