<svg xmlns="http://www.w3.org/2000/svg" width="90" height="380" viewBox="0 0 90 380">
  <title>Potsie</title>
  <g id="Layer_3" data-name="Layer 3">
    <rect width="90" height="380" style="fill: #f1f2f2;stroke: #33c6f4;stroke-miterlimit: 10"/>
  </g>
  <g id="Layer_2" data-name="Layer 2">
    <g>
      <g>
        <path d="M16.51,321.27a3.68,3.68,0,0,0,1.87.53c1.07,0,1.69-.57,1.69-1.38s-.43-1.19-1.52-1.61c-1.32-.47-2.13-1.15-2.13-2.29A2.32,2.32,0,0,1,19,314.33a3.73,3.73,0,0,1,1.79.39l-.29.85a3.25,3.25,0,0,0-1.54-.38c-1.1,0-1.52.66-1.52,1.21,0,.76.49,1.13,1.61,1.56,1.37.53,2.06,1.19,2.06,2.37s-.92,2.33-2.83,2.33a4.25,4.25,0,0,1-2.06-.51Z" style="fill: #231f20"/>
        <path d="M23.71,315.11a.62.62,0,0,1-.67.64.63.63,0,0,1-.64-.64.64.64,0,0,1,.66-.66A.62.62,0,0,1,23.71,315.11Zm-1.17,7.43v-5.8h1.05v5.8Z" style="fill: #231f20"/>
        <path d="M25.34,318.31c0-.6,0-1.09,0-1.57h.93l.06,1h0a2.09,2.09,0,0,1,1.91-1.09c.81,0,2.06.47,2.06,2.47v3.46H29.23V319.2c0-.94-.35-1.72-1.34-1.72a1.5,1.5,0,0,0-1.42,1.08,1.45,1.45,0,0,0-.07.49v3.49H25.34Z" style="fill: #231f20"/>
        <path d="M32.59,319.83a1.87,1.87,0,0,0,2,2,4,4,0,0,0,1.61-.3l.18.75a4.67,4.67,0,0,1-1.93.36,2.69,2.69,0,0,1-2.86-2.92c0-1.76,1-3.13,2.73-3.13a2.46,2.46,0,0,1,2.4,2.73,4.15,4.15,0,0,1,0,.49Zm3.1-.75a1.51,1.51,0,0,0-1.47-1.72,1.76,1.76,0,0,0-1.62,1.72Z" style="fill: #231f20"/>
      </g>
      <g>
        <path d="M47.57,321.27a3.72,3.72,0,0,0,1.88.53c1.06,0,1.69-.57,1.69-1.38s-.43-1.19-1.53-1.61c-1.32-.47-2.13-1.15-2.13-2.29a2.32,2.32,0,0,1,2.61-2.19,3.73,3.73,0,0,1,1.79.39l-.29.85a3.24,3.24,0,0,0-1.53-.38c-1.11,0-1.53.66-1.53,1.21,0,.76.5,1.13,1.61,1.56,1.37.53,2.06,1.19,2.06,2.37s-.92,2.33-2.83,2.33a4.25,4.25,0,0,1-2.06-.51Z" style="fill: #231f20"/>
        <path d="M57.63,321.64h0a2.05,2.05,0,0,1-1.89,1,2.64,2.64,0,0,1-2.46-2.93c0-2.18,1.4-3.13,2.63-3.13a1.89,1.89,0,0,1,1.78,1h0l0-.87h1c0,.49,0,1,0,1.59v6.59h-1Zm0-2.55a1.68,1.68,0,0,0-.05-.45,1.55,1.55,0,0,0-1.51-1.2c-1.09,0-1.75.93-1.75,2.24,0,1.15.55,2.15,1.71,2.15a1.55,1.55,0,0,0,1.51-1.15,1.7,1.7,0,0,0,.09-.5Z" style="fill: #231f20"/>
        <path d="M65.28,321c0,.6,0,1.13,0,1.58H64.4l-.06-1h0a2.18,2.18,0,0,1-1.92,1.08c-.91,0-2-.5-2-2.54v-3.39h1.06V320c0,1.1.33,1.85,1.29,1.85a1.52,1.52,0,0,0,1.39-1,1.57,1.57,0,0,0,.1-.54v-3.56h1Z" style="fill: #231f20"/>
        <path d="M70.25,322.54l-.08-.73h0a2.14,2.14,0,0,1-1.77.86A1.65,1.65,0,0,1,66.58,321c0-1.41,1.25-2.17,3.49-2.16v-.12a1.2,1.2,0,0,0-1.32-1.35,2.84,2.84,0,0,0-1.51.44l-.24-.7a3.63,3.63,0,0,1,1.91-.51c1.77,0,2.21,1.21,2.21,2.37v2.17a8.39,8.39,0,0,0,.09,1.39Zm-.15-3c-1.16,0-2.46.18-2.46,1.31a.93.93,0,0,0,1,1,1.44,1.44,0,0,0,1.41-1,1.28,1.28,0,0,0,.06-.33Z" style="fill: #231f20"/>
        <path d="M72.82,318.55c0-.69,0-1.27,0-1.81h.93l0,1.14h0a1.74,1.74,0,0,1,1.61-1.27,1.39,1.39,0,0,1,.3,0v1a1.32,1.32,0,0,0-.36,0A1.48,1.48,0,0,0,73.91,319a3.47,3.47,0,0,0,0,.49v3.09H72.82Z" style="fill: #231f20"/>
        <path d="M77.21,319.83a1.87,1.87,0,0,0,2,2,3.91,3.91,0,0,0,1.6-.3l.18.75a4.67,4.67,0,0,1-1.93.36,2.69,2.69,0,0,1-2.85-2.92c0-1.76,1-3.13,2.72-3.13a2.46,2.46,0,0,1,2.4,2.73,4.15,4.15,0,0,1,0,.49Zm3.1-.75a1.51,1.51,0,0,0-1.47-1.72,1.74,1.74,0,0,0-1.61,1.72Z" style="fill: #231f20"/>
      </g>
      <g>
        <path d="M20.66,233.27a12.57,12.57,0,0,1,2-.15,3.34,3.34,0,0,1,2.27.67,2.17,2.17,0,0,1,.7,1.69,2.38,2.38,0,0,1-.62,1.73,3.34,3.34,0,0,1-2.47.89,3.58,3.58,0,0,1-.84-.08v3.24h-1Zm1,3.9a3.49,3.49,0,0,0,.86.09c1.26,0,2-.62,2-1.73S23.83,234,22.68,234a4.32,4.32,0,0,0-1,.08Z" style="fill: #231f20"/>
        <path d="M26.94,232.75H28v3.62h0a2,2,0,0,1,.76-.75,2.26,2.26,0,0,1,1.08-.29c.78,0,2,.47,2,2.48v3.45H30.83v-3.33c0-.94-.35-1.73-1.34-1.73a1.51,1.51,0,0,0-1.42,1.06,1.26,1.26,0,0,0-.07.5v3.5H26.94Z" style="fill: #231f20"/>
        <path d="M36.82,241.26l-.09-.73h0a2.15,2.15,0,0,1-1.78.86,1.65,1.65,0,0,1-1.77-1.66c0-1.41,1.25-2.17,3.49-2.16v-.12a1.2,1.2,0,0,0-1.32-1.35,2.84,2.84,0,0,0-1.51.44l-.24-.7a3.6,3.6,0,0,1,1.9-.51c1.78,0,2.21,1.21,2.21,2.37v2.17a8.32,8.32,0,0,0,.1,1.39Zm-.16-3c-1.15,0-2.46.18-2.46,1.31a.93.93,0,0,0,1,1,1.44,1.44,0,0,0,1.4-1,.92.92,0,0,0,.06-.33Z" style="fill: #231f20"/>
        <path d="M39.24,240.18a2.76,2.76,0,0,0,1.4.42c.76,0,1.12-.38,1.12-.86s-.3-.78-1.08-1.07c-1-.37-1.53-.95-1.53-1.64a1.78,1.78,0,0,1,2-1.7,3,3,0,0,1,1.43.35l-.27.77a2.25,2.25,0,0,0-1.18-.33c-.63,0-1,.36-1,.79s.34.69,1.1,1c1,.39,1.52.89,1.52,1.75,0,1-.79,1.74-2.17,1.74A3.33,3.33,0,0,1,39,241Z" style="fill: #231f20"/>
        <path d="M44.73,238.55a1.86,1.86,0,0,0,2,2,4,4,0,0,0,1.61-.3l.18.75a4.71,4.71,0,0,1-1.93.36,2.69,2.69,0,0,1-2.86-2.92c0-1.76,1-3.13,2.72-3.13a2.45,2.45,0,0,1,2.4,2.73,4.68,4.68,0,0,1,0,.49Zm3.09-.75a1.5,1.5,0,0,0-1.46-1.72,1.74,1.74,0,0,0-1.62,1.72Z" style="fill: #231f20"/>
        <path d="M59.54,237.71c-.06-1.13-.13-2.48-.12-3.49h0c-.28.95-.61,2-1,3.07l-1.43,3.92h-.79l-1.31-3.85c-.38-1.14-.71-2.18-.93-3.14h0c0,1-.08,2.36-.15,3.58l-.22,3.46h-1l.56-8.08h1.33l1.38,3.91c.34,1,.61,1.88.82,2.72h0c.21-.81.49-1.7.85-2.72l1.44-3.91h1.33l.51,8.08h-1Z" style="fill: #231f20"/>
        <path d="M63.66,233.83a.65.65,0,0,1-1.3,0,.64.64,0,0,1,.66-.66A.62.62,0,0,1,63.66,233.83Zm-1.17,7.43v-5.8h1v5.8Z" style="fill: #231f20"/>
        <path d="M65.79,235.46l.82,1.24c.22.33.4.63.59,1h0c.19-.35.38-.65.57-1l.82-1.23h1.14l-2,2.8,2,3h-1.2L67.78,240c-.23-.33-.42-.66-.63-1h0c-.19.34-.4.66-.61,1l-.84,1.31H64.52l2.06-3-2-2.84Z" style="fill: #231f20"/>
      </g>
      <g>
        <path d="M35.3,142.18h4.35v.87H36.34v2.69H39.4v.86H36.34v3.66h-1Z" style="fill: #231f20"/>
        <path d="M40.79,146.27c0-.69,0-1.27,0-1.81h.92l0,1.14h0a1.75,1.75,0,0,1,1.61-1.27,1.39,1.39,0,0,1,.3,0v1a1.28,1.28,0,0,0-.36,0,1.47,1.47,0,0,0-1.41,1.36,2.38,2.38,0,0,0,0,.49v3.09H40.79Z" style="fill: #231f20"/>
        <path d="M45.19,147.55a1.86,1.86,0,0,0,2,2,4,4,0,0,0,1.61-.3L49,150a4.63,4.63,0,0,1-1.93.36,2.69,2.69,0,0,1-2.85-2.92c0-1.76,1-3.13,2.72-3.13a2.45,2.45,0,0,1,2.4,2.73,2.72,2.72,0,0,1,0,.49Zm3.09-.75a1.51,1.51,0,0,0-1.46-1.72,1.74,1.74,0,0,0-1.62,1.72Z" style="fill: #231f20"/>
        <path d="M54.57,149.36h0a2.05,2.05,0,0,1-1.89,1,2.64,2.64,0,0,1-2.46-2.93c0-2.18,1.4-3.13,2.63-3.13a1.89,1.89,0,0,1,1.78,1h0l0-.87h1c0,.49,0,1,0,1.59v6.59h-1Zm0-2.55a1.68,1.68,0,0,0,0-.45,1.55,1.55,0,0,0-1.51-1.2c-1.09,0-1.75.93-1.75,2.24,0,1.15.55,2.15,1.71,2.15a1.56,1.56,0,0,0,1.51-1.15,1.7,1.7,0,0,0,.09-.5Z" style="fill: #231f20"/>
      </g>
      <g>
        <path d="M29.38,24.9a12.57,12.57,0,0,1,2-.15,3.3,3.3,0,0,1,2.26.67,2.15,2.15,0,0,1,.71,1.69,2.34,2.34,0,0,1-.62,1.72,3.34,3.34,0,0,1-2.47.89,3.61,3.61,0,0,1-.84-.07v3.24h-1Zm1,3.9a3.49,3.49,0,0,0,.86.08c1.26,0,2-.61,2-1.72s-.76-1.59-1.91-1.59a4.17,4.17,0,0,0-1,.09Z" style="fill: #231f20"/>
        <path d="M40.68,29.94A2.84,2.84,0,0,1,37.79,33,2.76,2.76,0,0,1,35,30,2.84,2.84,0,0,1,37.88,27,2.75,2.75,0,0,1,40.68,29.94ZM36.07,30c0,1.27.73,2.23,1.76,2.23S39.6,31.28,39.6,30c0-1-.49-2.23-1.74-2.23S36.07,28.89,36.07,30Z" style="fill: #231f20"/>
        <path d="M43.28,25.42v1.66h1.51v.81H43.28V31c0,.72.21,1.13.79,1.13a2.22,2.22,0,0,0,.62-.08l0,.79a2.39,2.39,0,0,1-.93.15,1.46,1.46,0,0,1-1.14-.45,2.13,2.13,0,0,1-.41-1.51V27.89h-.9v-.81h.9V25.69Z" style="fill: #231f20"/>
        <path d="M45.84,31.81a2.79,2.79,0,0,0,1.39.42c.77,0,1.13-.38,1.13-.86s-.3-.78-1.08-1.07c-1-.37-1.54-.95-1.54-1.64a1.8,1.8,0,0,1,2-1.71,2.9,2.9,0,0,1,1.42.36l-.26.77a2.31,2.31,0,0,0-1.19-.34c-.62,0-1,.36-1,.8s.35.69,1.1,1c1,.38,1.53.89,1.53,1.75,0,1-.79,1.74-2.17,1.74a3.27,3.27,0,0,1-1.63-.4Z" style="fill: #231f20"/>
        <path d="M51.91,25.45a.62.62,0,0,1-.67.65.63.63,0,0,1-.64-.65.65.65,0,0,1,.66-.66A.63.63,0,0,1,51.91,25.45Zm-1.17,7.44V27.08h1v5.81Z" style="fill: #231f20"/>
        <path d="M54.13,30.18a1.86,1.86,0,0,0,2,2,3.8,3.8,0,0,0,1.61-.3l.18.76A4.67,4.67,0,0,1,56,33a2.7,2.7,0,0,1-2.86-2.93c0-1.75,1-3.13,2.73-3.13a2.47,2.47,0,0,1,2.4,2.74,4.35,4.35,0,0,1,0,.49Zm3.1-.76a1.5,1.5,0,0,0-1.47-1.71,1.76,1.76,0,0,0-1.62,1.71Z" style="fill: #231f20"/>
      </g>
    </g>
  </g>
</svg>
